<svg width="140" height="66" viewBox="0 0 140 66" fill="none" xmlns="http://www.w3.org/2000/svg">
<path opacity="0.3" fill-rule="evenodd" clip-rule="evenodd" d="M13.5964 19.4315C31.7249 8.96496 9.54657 27.9762 27.6751 38.4428C45.8036 48.9093 97.4178 46.893 79.2893 57.3596C61.1608 67.8257 31.7249 67.8257 13.5964 57.3596C-4.53213 46.893 -4.53213 29.8981 13.5964 19.4315Z" fill="black"/>
<path fill-rule="evenodd" clip-rule="evenodd" d="M21.7191 8.37001C38.7391 -1.45667 66.3759 -1.45667 83.3959 8.37001C100.416 18.1967 100.416 34.1524 83.3959 43.9791C66.3759 53.8058 38.7391 53.8058 21.7191 43.9791C4.6991 34.1524 4.6991 18.1967 21.7191 8.37001ZM30.0207 13.1628C42.4592 5.98149 62.6557 5.98149 75.0943 13.1628C87.5328 20.344 87.5328 32.0051 75.0943 39.1864C62.6557 46.3676 42.4592 46.3676 30.0207 39.1864C17.5822 32.0051 17.5822 20.344 30.0207 13.1628Z" fill="white"/>
<path fill-rule="evenodd" clip-rule="evenodd" d="M21.7191 8.37001C38.7391 -1.45667 66.3759 -1.45667 83.3959 8.37001C100.416 18.1967 100.416 34.1524 83.3959 43.9791C66.3759 53.8058 38.7391 53.8058 21.7191 43.9791C4.6991 34.1524 4.6991 18.1967 21.7191 8.37001ZM30.0207 13.1628C42.4592 5.98149 62.6557 5.98149 75.0943 13.1628C87.5328 20.344 87.5328 32.0051 75.0943 39.1864C62.6557 46.3676 42.4592 46.3676 30.0207 39.1864C17.5822 32.0051 17.5822 20.344 30.0207 13.1628Z" fill="white" stroke="black" stroke-width="2" stroke-linecap="round" stroke-linejoin="round"/>
<path fill-rule="evenodd" clip-rule="evenodd" d="M96.1614 36.609H96.145C96.4606 43.2838 92.211 50.0168 83.3961 55.1063C66.3761 64.933 38.7394 64.933 21.7194 55.1063C12.9045 50.0168 8.65487 43.2838 8.97047 36.609H8.9541V26.1747C8.9541 32.6199 13.2091 39.0656 21.7194 43.979C38.7394 53.8057 66.3761 53.8057 83.3961 43.979C91.9064 39.0656 96.1614 32.6199 96.1614 26.1747V36.609Z" fill="black"/>
<path fill-rule="evenodd" clip-rule="evenodd" d="M96.1614 36.609H96.145C96.4606 43.2838 92.211 50.0168 83.3961 55.1063C66.3761 64.933 38.7394 64.933 21.7194 55.1063C12.9045 50.0168 8.65487 43.2838 8.97047 36.609H8.9541V26.1747C8.9541 32.6199 13.2091 39.0656 21.7194 43.979C38.7394 53.8057 66.3761 53.8057 83.3961 43.979C91.9064 39.0656 96.1614 32.6199 96.1614 26.1747V36.609Z" stroke="black" stroke-width="2" stroke-linecap="round" stroke-linejoin="round"/>
<path fill-rule="evenodd" clip-rule="evenodd" d="M119.652 22.1633C130.883 22.1633 140 31.2808 140 42.5105C140 53.7407 130.883 62.8582 119.652 62.8582C108.422 62.8582 99.3047 53.7407 99.3047 42.5105C99.3047 31.2808 108.422 22.1633 119.652 22.1633Z" fill="black"/>
<path opacity="0.3" fill-rule="evenodd" clip-rule="evenodd" d="M101.291 47.2385C108.281 43.108 119.631 43.108 126.621 47.2385C133.611 51.369 133.611 58.0757 126.621 62.2062C119.631 66.3365 108.281 66.3365 101.291 62.2062C94.3013 58.0757 94.3013 51.369 101.291 47.2385Z" fill="black"/>
<path fill-rule="evenodd" clip-rule="evenodd" d="M21.7949 30.9903C23.1984 27.9873 25.9402 25.15 30.02 22.7946C42.4585 15.6128 62.655 15.6128 75.0935 22.7946C79.1733 25.15 81.9152 27.9873 83.3186 30.9903C81.9152 33.9937 79.1733 36.831 75.0935 39.1865C62.655 46.3678 42.4585 46.3678 30.02 39.1865C25.9402 36.831 23.1984 33.9937 21.7949 30.9903Z" fill="white" stroke="black" stroke-width="2" stroke-linecap="round" stroke-linejoin="round"/>
</svg>
