<svg width="80" height="93" viewBox="0 0 80 93" fill="none" xmlns="http://www.w3.org/2000/svg">
<path opacity="0.3" fill-rule="evenodd" clip-rule="evenodd" d="M46.2511 44.0843C50.8502 41.4236 58.318 41.4236 62.9171 44.0843C67.5162 46.745 67.5162 51.0653 62.9171 53.726C58.318 56.3866 50.8502 56.3866 46.2511 53.726C41.652 51.0653 41.652 46.745 46.2511 44.0843Z" fill="black"/>
<path opacity="0.3" fill-rule="evenodd" clip-rule="evenodd" d="M51.9825 73.8795C56.5817 71.2187 64.0494 71.2187 68.6486 73.8795C73.2477 76.5402 73.2477 80.8605 68.6486 83.5212C64.0494 86.1818 56.5817 86.1818 51.9825 83.5212C47.3834 80.8605 47.3834 76.5402 51.9825 73.8795Z" fill="black"/>
<path opacity="0.3" fill-rule="evenodd" clip-rule="evenodd" d="M8.24915 60.5189C12.8483 57.8581 20.316 57.8581 24.9152 60.5189C29.5143 63.1796 29.5143 67.4999 24.9152 70.1606C20.316 72.8212 12.8483 72.8212 8.24915 70.1606C3.65002 67.4999 3.65002 63.1796 8.24915 60.5189Z" fill="black"/>
<path fill-rule="evenodd" clip-rule="evenodd" d="M54.2669 0C63.4647 0 70.9322 7.48297 70.9322 16.6996C70.9322 25.9166 63.4647 33.3996 54.2669 33.3996C45.069 33.3996 37.6016 25.9166 37.6016 16.6996C37.6016 7.48297 45.069 0 54.2669 0Z" fill="black"/>
<path d="M43.9688 19.0204C44.1651 18.909 44.4429 18.904 44.7705 19.0555L44.9131 19.1307C45.3001 19.3547 45.6565 19.7395 45.916 20.1844C46.1756 20.6296 46.333 21.1255 46.333 21.5643C46.333 21.941 46.2184 22.2007 46.0449 22.3456L45.9678 22.4003L9.69922 43.369C9.76489 43.2074 9.8027 43.0169 9.80273 42.8016C9.80273 42.3188 9.63085 41.7884 9.3584 41.3212C9.11988 40.9122 8.7998 40.5438 8.43945 40.2938L8.28223 40.1942C8.08407 40.0796 7.88949 40.0111 7.70703 39.9872L43.9697 19.0214L43.9688 19.0204Z" fill="white" stroke="#5041AA" stroke-width="0.2"/>
<path d="M56.3794 21.67C56.3663 21.4442 56.4844 21.1926 56.7644 20.9648L56.8942 20.8687C57.2656 20.6194 57.7681 20.4687 58.2811 20.4316C58.7941 20.3945 59.3075 20.4713 59.7004 20.6647C60.0377 20.8308 60.2199 21.049 60.2731 21.2689L60.2882 21.3624L63.0712 63.2286C62.9555 63.0984 62.801 62.9812 62.6083 62.8863C62.1757 62.6732 61.6245 62.5939 61.0858 62.6329C60.6143 62.667 60.1436 62.792 59.7608 63.0058L59.6022 63.1029C59.4122 63.2306 59.2656 63.3758 59.1637 63.5292L56.3807 21.6696L56.3794 21.67Z" fill="white" stroke="#5041AA" stroke-width="0.2"/>
<path fill-rule="evenodd" clip-rule="evenodd" d="M16.6653 16.0338C25.8632 16.0338 33.3306 23.5168 33.3306 32.7334C33.3306 41.9504 25.8632 49.4334 16.6653 49.4334C7.46742 49.4334 0 41.9504 0 32.7334C0 23.5168 7.46742 16.0338 16.6653 16.0338Z" fill="black"/>
<path fill-rule="evenodd" clip-rule="evenodd" d="M59.9983 31.3986C69.1962 31.3986 76.6636 38.8815 76.6636 48.0982C76.6636 57.3152 69.1962 64.7982 59.9983 64.7982C50.8004 64.7982 43.333 57.3152 43.333 48.0982C43.333 38.8815 50.8004 31.3986 59.9983 31.3986Z" fill="#E1E1E1"/>
</svg>
