<svg width="80" height="84" viewBox="0 0 80 84" fill="none" xmlns="http://www.w3.org/2000/svg">
<path opacity="0.3" fill-rule="evenodd" clip-rule="evenodd" d="M11.7101 44.3111C27.3236 35.2371 52.6764 35.2371 68.2899 44.3111C83.9034 53.3857 83.9034 68.12 68.2899 77.1943C52.6764 86.2686 27.3236 86.2686 11.7101 77.1943C-3.90337 68.12 -3.90337 53.3857 11.7101 44.3111Z" fill="black"/>
<path fill-rule="evenodd" clip-rule="evenodd" d="M77.8225 56.1871C77.868 56.2833 77.9114 56.3798 77.9537 56.4772L77.9558 56.482C80.1377 61.524 77.8377 67.0899 71.0563 71.0311C60.7956 76.9946 44.1346 76.9946 33.8739 71.0311C27.0925 67.0899 24.7925 61.524 26.9744 56.482L26.9765 56.4772C27.0188 56.3802 27.0622 56.2834 27.1077 56.1871L52.4654 0L77.8225 56.1871Z" fill="black"/>
<path fill-rule="evenodd" clip-rule="evenodd" d="M33.8736 49.4212C44.1343 43.4579 60.7954 43.4579 71.0561 49.4212C81.3173 55.3845 81.3173 65.0677 71.0561 71.0312C60.7954 76.9946 44.1343 76.9946 33.8736 71.0312C23.6124 65.0677 23.6124 55.3845 33.8736 49.4212Z" fill="black"/>
</svg>
