<svg width="80" height="75" viewBox="0 0 80 75" fill="none" xmlns="http://www.w3.org/2000/svg">
<path opacity="0.3" fill-rule="evenodd" clip-rule="evenodd" d="M14.5716 32.1953L0 40.6082L14.5716 49.0211L20.4529 49.0055L26.2028 40.6082L14.5716 32.1953Z" fill="#001F3F"/>
<path opacity="0.3" fill-rule="evenodd" clip-rule="evenodd" d="M30.5757 44.6113L16.0039 53.0243L30.5757 61.4373L42.3383 61.4218L48.0879 53.0243L30.5757 44.6113Z" fill="#001F3F"/>
<path opacity="0.3" fill-rule="evenodd" clip-rule="evenodd" d="M51.0178 58.123L36.4463 66.536L51.0178 74.949L65.7211 74.9335L71.4709 66.536L51.0178 58.123Z" fill="#001F3F"/>
<path fill-rule="evenodd" clip-rule="evenodd" d="M20.4534 14.5514L5.88184 22.9643V40.5926L20.4534 49.0055L35.0252 40.5926V22.9643L20.4534 14.5514Z" fill="#001F3F"/>
<path fill-rule="evenodd" clip-rule="evenodd" d="M35.0249 22.9642L20.4531 31.3771V49.0055L35.0249 40.5925V22.9642Z" fill="white"/>
<path fill-rule="evenodd" clip-rule="evenodd" d="M20.4534 14.5514L5.88184 22.9643L20.4534 31.3772L35.0252 22.9643L20.4534 14.5514Z" fill="white"/>
<path fill-rule="evenodd" clip-rule="evenodd" d="M42.106 10.4629L27.5342 18.8761V53.0936L42.106 61.5066L56.6778 53.0936V18.8761L42.106 10.4629Z" fill="#001F3F"/>
<path fill-rule="evenodd" clip-rule="evenodd" d="M56.6773 18.8763L42.1055 27.2893V61.5068L56.6773 53.0939V18.8763Z" fill="white"/>
<path fill-rule="evenodd" clip-rule="evenodd" d="M42.106 10.4629L27.5342 18.8761L42.106 27.289L56.6778 18.8761L42.106 10.4629Z" fill="white"/>
<path fill-rule="evenodd" clip-rule="evenodd" d="M65.428 0L50.8564 8.41291V66.5589L65.428 74.9719L79.9998 66.5589V8.41291L65.428 0Z" fill="#001F3F"/>
<path fill-rule="evenodd" clip-rule="evenodd" d="M80.0005 8.41272L65.4287 16.8256V74.9717L80.0005 66.5587V8.41272Z" fill="white"/>
<path fill-rule="evenodd" clip-rule="evenodd" d="M65.428 0L50.8564 8.41291L65.428 16.8258L79.9998 8.41291L65.428 0Z" fill="white"/>
</svg>
