<svg width="144" height="32" viewBox="0 0 144 32" fill="none" xmlns="http://www.w3.org/2000/svg">
<path d="M3.12305 2.81233H29.4982" stroke="#01373D" stroke-width="1.13036"/>
<path d="M3.12305 2.81233V29.1874" stroke="#01373D" stroke-width="1.13036"/>
<path d="M3.12305 29.1877H29.4982" stroke="#01373D" stroke-width="1.13036"/>
<path d="M29.498 2.81233V29.1874" stroke="#01373D" stroke-width="1.13036"/>
<path d="M3.12305 16H29.4982" stroke="#01373D" stroke-width="1.13036"/>
<path d="M16.3105 2.81233V29.1874" stroke="#01373D" stroke-width="1.13036"/>
<path d="M3.12305 2.81233L29.4982 29.1874" stroke="#01373D" stroke-width="1.50715"/>
<path d="M3.12303 5.07317C4.37159 5.07317 5.38375 4.06101 5.38375 2.81245C5.38375 1.56388 4.37159 0.551723 3.12303 0.551723C1.87447 0.551723 0.862305 1.56388 0.862305 2.81245C0.862305 4.06101 1.87447 5.07317 3.12303 5.07317Z" fill="#01373D"/>
<path d="M29.498 5.07317C30.7466 5.07317 31.7588 4.06101 31.7588 2.81245C31.7588 1.56388 30.7466 0.551723 29.498 0.551723C28.2495 0.551723 27.2373 1.56388 27.2373 2.81245C27.2373 4.06101 28.2495 5.07317 29.498 5.07317Z" fill="#01373D"/>
<path d="M3.12303 31.4485C4.37159 31.4485 5.38375 30.4363 5.38375 29.1878C5.38375 27.9392 4.37159 26.9271 3.12303 26.9271C1.87447 26.9271 0.862305 27.9392 0.862305 29.1878C0.862305 30.4363 1.87447 31.4485 3.12303 31.4485Z" fill="#01373D"/>
<path d="M29.498 31.4485C30.7466 31.4485 31.7588 30.4363 31.7588 29.1878C31.7588 27.9392 30.7466 26.9271 29.498 26.9271C28.2495 26.9271 27.2373 27.9392 27.2373 29.1878C27.2373 30.4363 28.2495 31.4485 29.498 31.4485Z" fill="#01373D"/>
<path d="M16.3102 19.0143C17.9749 19.0143 19.3245 17.6647 19.3245 16C19.3245 14.3352 17.9749 12.9857 16.3102 12.9857C14.6454 12.9857 13.2959 14.3352 13.2959 16C13.2959 17.6647 14.6454 19.0143 16.3102 19.0143Z" fill="#01373D"/>
<path d="M16.3107 4.69617C17.3512 4.69617 18.1946 3.8527 18.1946 2.81224C18.1946 1.77177 17.3512 0.928299 16.3107 0.928299C15.2702 0.928299 14.4268 1.77177 14.4268 2.81224C14.4268 3.8527 15.2702 4.69617 16.3107 4.69617Z" fill="#01373D"/>
<path d="M3.12319 17.8838C4.16366 17.8838 5.00713 17.0404 5.00713 15.9999C5.00713 14.9594 4.16366 14.116 3.12319 14.116C2.08272 14.116 1.23926 14.9594 1.23926 15.9999C1.23926 17.0404 2.08272 17.8838 3.12319 17.8838Z" fill="#01373D"/>
<path d="M29.4982 17.8838C30.5387 17.8838 31.3821 17.0404 31.3821 15.9999C31.3821 14.9594 30.5387 14.116 29.4982 14.116C28.4577 14.116 27.6143 14.9594 27.6143 15.9999C27.6143 17.0404 28.4577 17.8838 29.4982 17.8838Z" fill="#01373D"/>
<path d="M16.3107 31.0715C17.3512 31.0715 18.1946 30.228 18.1946 29.1876C18.1946 28.1471 17.3512 27.3036 16.3107 27.3036C15.2702 27.3036 14.4268 28.1471 14.4268 29.1876C14.4268 30.228 15.2702 31.0715 16.3107 31.0715Z" fill="#01373D"/>
<path d="M53.7583 24.2119C52.24 24.2119 50.9335 23.8499 49.8389 23.1261C48.7619 22.3846 47.9321 21.3341 47.3495 19.9746C46.7669 18.6152 46.4756 16.9909 46.4756 15.1018C46.4756 13.3539 46.8022 11.7914 47.4554 10.4143C48.1087 9.03724 49.0709 7.96028 50.3421 7.18345C51.6309 6.38897 53.1934 5.99172 55.0295 5.99172C56.2654 5.99172 57.3865 6.18593 58.3928 6.57434C59.4168 6.96276 60.2908 7.53655 61.0146 8.29572C61.7561 9.03724 62.3299 9.93766 62.736 10.997L60.1142 12.8508C59.9377 12.0916 59.6287 11.4119 59.1873 10.8116C58.7636 10.1937 58.2074 9.70814 57.5189 9.35503C56.8303 9.00193 56.0094 8.82538 55.056 8.82538C53.8201 8.82538 52.805 9.09903 52.0105 9.64634C51.216 10.176 50.6246 10.9087 50.2361 11.8444C49.8477 12.7801 49.6535 13.8659 49.6535 15.1018C49.6535 16.3377 49.8477 17.4323 50.2361 18.3857C50.6246 19.339 51.1983 20.0806 51.9575 20.6102C52.7343 21.1399 53.7054 21.4047 54.8706 21.4047C55.877 21.4047 56.7156 21.2281 57.3865 20.875C58.0574 20.5219 58.587 20.0276 58.9754 19.392C59.3639 18.7564 59.664 18.0237 59.8759 17.1939H60.1937L60.0877 17.3528C60.0348 18.677 59.7523 19.8599 59.2403 20.9015C58.7459 21.9255 58.0397 22.7377 57.1217 23.3379C56.2036 23.9206 55.0825 24.2119 53.7583 24.2119ZM62.8154 24H60.8822L60.0877 17.3528H54.6852V14.8105H62.8154V24ZM71.7948 24H68.8022V6.25655H71.7948V24ZM77.2502 8.90483H63.3468V6.25655H77.2502V8.90483ZM81.4473 24H78.4548V6.25655H82.1359L85.9494 14.0425L87.6972 18.571L89.4451 14.0425L93.2586 6.25655H96.9397V24H93.9472V15.6579L94.3179 9.80524L92.2788 14.9164L89.2068 21.0074H86.1877L83.1157 14.9164L81.0236 9.80524L81.4473 15.6579V24Z" fill="#01373D"/>
<path d="M103.465 24.2759H101.364L105.99 12.4469H108.285L112.911 24.2759H110.704L107.738 16.3663L107.102 14.2301L106.467 16.3663L103.465 24.2759ZM110.298 21.2921H103.73V19.5619H110.298V21.2921ZM116.414 24.4524C115.861 24.4524 115.378 24.3465 114.966 24.1346C114.566 23.911 114.26 23.5932 114.048 23.1812C113.836 22.7575 113.73 22.2514 113.73 21.6629V15.6778H115.708V21.0626C115.708 21.5923 115.825 22.0219 116.061 22.3514C116.296 22.681 116.737 22.8458 117.385 22.8458C117.867 22.8458 118.25 22.7516 118.532 22.5633C118.815 22.3632 119.015 22.0866 119.133 21.7335C119.262 21.3804 119.327 20.9685 119.327 20.4977L119.433 21.3098C119.374 21.8394 119.233 22.3456 119.009 22.8281C118.785 23.2989 118.462 23.6874 118.038 23.9934C117.614 24.2994 117.073 24.4524 116.414 24.4524ZM121.322 24.2759H119.327V15.6778H121.322V24.2759ZM126.353 24.4701C125.647 24.4701 125.035 24.2935 124.517 23.9404C123.999 23.5755 123.599 23.0577 123.316 22.3868C123.034 21.7159 122.893 20.9155 122.893 19.9857C122.893 19.0558 123.034 18.2613 123.316 17.6022C123.599 16.9313 123.993 16.4134 124.499 16.0486C125.017 15.6837 125.623 15.5012 126.318 15.5012C126.977 15.5012 127.507 15.6543 127.907 15.9603C128.307 16.2545 128.601 16.6429 128.79 17.1255C128.99 17.6081 129.119 18.1142 129.178 18.6439L129.072 19.456C129.072 18.9852 129.001 18.5791 128.86 18.2378C128.731 17.8847 128.519 17.614 128.225 17.4257C127.93 17.2256 127.554 17.1255 127.095 17.1255C126.471 17.1255 125.953 17.3609 125.541 17.8317C125.129 18.3025 124.923 19.0205 124.923 19.9857C124.923 20.9508 125.129 21.6747 125.541 22.1572C125.965 22.628 126.488 22.8634 127.112 22.8634C127.571 22.8634 127.942 22.7693 128.225 22.581C128.519 22.3809 128.731 22.1102 128.86 21.7688C129.001 21.4157 129.072 21.0038 129.072 20.533L129.178 21.3274C129.119 21.8571 128.995 22.3632 128.807 22.8458C128.619 23.3166 128.33 23.705 127.942 24.011C127.554 24.3171 127.024 24.4701 126.353 24.4701ZM131.049 24.2759H129.072V12.4469H131.049V24.2759ZM135.105 14.4596H133.128V12.4469H135.105V14.4596ZM135.105 24.2759H133.128V15.6778H135.105V24.2759ZM140.304 24.4701C139.763 24.4701 139.298 24.3641 138.91 24.1523C138.533 23.9404 138.245 23.6462 138.044 23.2695C137.844 22.8811 137.744 22.4338 137.744 21.9277V14.6361L139.722 13.3826V21.451C139.722 21.9101 139.816 22.222 140.004 22.3868C140.204 22.5398 140.451 22.6163 140.746 22.6163C141.075 22.6163 141.358 22.5045 141.593 22.2808C141.84 22.0572 142.029 21.8218 142.158 21.5746L142.776 23.3401C142.588 23.6109 142.282 23.8698 141.858 24.117C141.446 24.3524 140.928 24.4701 140.304 24.4701ZM142.352 17.2138H136.402V15.6778H142.352V17.2138Z" fill="#01373D"/>
</svg>
