<svg width="625" height="448" viewBox="0 0 625 448" fill="none" xmlns="http://www.w3.org/2000/svg">
<g clip-path="url(#clip0_207_7089)">
<rect x="10" y="10" width="605" height="428" rx="12" fill="#E8DBF5"/>
<circle cx="312" cy="224" r="249.5" stroke="#EEECEB"/>
<circle cx="312.5" cy="224.5" r="307" stroke="#EEECEB"/>
<circle cx="312.5" cy="223.5" r="353" stroke="#EEECEB"/>
<circle cx="313" cy="223" r="410.5" stroke="#EEECEB"/>
<circle cx="312.5" cy="223.5" r="463" stroke="#EEECEB"/>
<circle cx="312" cy="224" r="179.5" stroke="#EEECEB"/>
<path d="M312 105.5C376.891 105.5 429.5 158.328 429.5 223.5C429.5 288.672 376.891 341.5 312 341.5C247.109 341.5 194.5 288.672 194.5 223.5C194.5 158.328 247.109 105.5 312 105.5Z" stroke="#EEECEB"/>
<g filter="url(#filter0_d_207_7089)">
<rect x="94.9102" y="78.0554" width="435.18" height="291.889" rx="15.4764" fill="white" shape-rendering="crispEdges"/>
<rect x="95.9431" y="79.0884" width="433.114" height="289.823" rx="14.4434" stroke="#F3F3F3" stroke-width="2.06597" shape-rendering="crispEdges"/>
<rect x="95" y="168" width="436" height="40" fill="#CEC7FF"/>
<g clip-path="url(#clip1_207_7089)">
<line x1="94.9102" y1="167.775" x2="530.09" y2="167.775" stroke="#E5E5E5"/>
<line x1="94.9102" y1="207.537" x2="530.09" y2="207.537" stroke="#E5E5E5"/>
<line x1="94.9102" y1="247.299" x2="530.09" y2="247.299" stroke="#E5E5E5"/>
<line x1="94.9102" y1="287.061" x2="530.09" y2="287.061" stroke="#E5E5E5"/>
<line x1="94.9102" y1="326.823" x2="530.09" y2="326.823" stroke="#E5E5E5"/>
<line x1="129.104" y1="168.275" x2="129.104" y2="434.846" stroke="#E5E5E5"/>
<line x1="251.702" y1="168.275" x2="251.702" y2="434.846" stroke="#E5E5E5"/>
<line x1="374.301" y1="168.275" x2="374.301" y2="434.846" stroke="#E5E5E5"/>
<line x1="496.899" y1="168.275" x2="496.899" y2="434.846" stroke="#E5E5E5"/>
<rect x="143" y="181" width="94.894" height="11.1071" rx="5.55355" fill="#A199DD"/>
<rect x="267" y="181" width="94.894" height="11.1071" rx="5.55355" fill="#A199DD"/>
<rect x="391" y="181" width="94.894" height="11.1071" rx="5.55355" fill="#A199DD"/>
<rect x="508" y="181" width="94.894" height="11.1071" rx="5.55355" fill="#A199DD"/>
<rect x="265.914" y="221.946" width="94.894" height="11.1071" rx="5.55355" fill="#D9D9D9"/>
<rect x="388.719" y="262.881" width="94.894" height="11.1071" rx="5.55355" fill="#D9D9D9"/>
<rect x="509.115" y="342.341" width="94.894" height="11.1071" rx="5.55355" fill="#D9D9D9"/>
</g>
<path d="M139.565 114.072C139.46 113.135 139.024 112.41 138.259 111.896C137.494 111.375 136.532 111.114 135.371 111.114C134.54 111.114 133.821 111.246 133.215 111.51C132.608 111.767 132.136 112.123 131.8 112.578C131.47 113.027 131.306 113.538 131.306 114.111C131.306 114.593 131.418 115.008 131.642 115.358C131.873 115.707 132.173 116.001 132.542 116.238C132.918 116.469 133.32 116.663 133.749 116.822C134.177 116.973 134.59 117.099 134.985 117.198L136.964 117.712C137.61 117.87 138.273 118.085 138.952 118.355C139.631 118.625 140.261 118.981 140.841 119.423C141.421 119.865 141.89 120.412 142.246 121.065C142.608 121.718 142.79 122.5 142.79 123.41C142.79 124.557 142.493 125.576 141.9 126.466C141.313 127.356 140.459 128.059 139.338 128.573C138.223 129.087 136.875 129.345 135.292 129.345C133.775 129.345 132.463 129.104 131.355 128.623C130.247 128.141 129.38 127.459 128.753 126.575C128.127 125.685 127.781 124.63 127.715 123.41H130.781C130.841 124.142 131.078 124.752 131.493 125.24C131.916 125.721 132.453 126.08 133.106 126.318C133.765 126.549 134.487 126.664 135.272 126.664C136.136 126.664 136.904 126.529 137.577 126.258C138.256 125.981 138.79 125.599 139.179 125.111C139.568 124.616 139.763 124.039 139.763 123.38C139.763 122.78 139.591 122.289 139.249 121.906C138.912 121.524 138.454 121.207 137.874 120.956C137.3 120.706 136.65 120.485 135.925 120.294L133.531 119.641C131.909 119.199 130.623 118.549 129.673 117.692C128.73 116.835 128.259 115.701 128.259 114.289C128.259 113.122 128.575 112.103 129.208 111.233C129.842 110.362 130.699 109.686 131.78 109.205C132.862 108.717 134.082 108.473 135.44 108.473C136.812 108.473 138.022 108.714 139.071 109.195C140.126 109.677 140.957 110.339 141.563 111.183C142.17 112.021 142.486 112.984 142.513 114.072H139.565ZM150.627 129.345C149.664 129.345 148.793 129.167 148.015 128.81C147.237 128.448 146.62 127.924 146.165 127.238C145.717 126.552 145.493 125.711 145.493 124.715C145.493 123.858 145.658 123.152 145.987 122.598C146.317 122.045 146.762 121.606 147.323 121.283C147.883 120.96 148.51 120.716 149.202 120.551C149.895 120.386 150.6 120.261 151.319 120.175C152.229 120.069 152.968 119.984 153.535 119.918C154.102 119.845 154.514 119.73 154.771 119.572C155.028 119.413 155.157 119.156 155.157 118.8V118.731C155.157 117.867 154.913 117.198 154.425 116.723C153.944 116.248 153.225 116.011 152.269 116.011C151.273 116.011 150.488 116.232 149.914 116.673C149.347 117.109 148.955 117.593 148.737 118.127L145.958 117.494C146.287 116.571 146.769 115.826 147.402 115.259C148.041 114.685 148.777 114.27 149.608 114.012C150.439 113.749 151.312 113.617 152.229 113.617C152.836 113.617 153.479 113.689 154.158 113.834C154.844 113.973 155.483 114.23 156.077 114.606C156.677 114.982 157.168 115.519 157.551 116.218C157.933 116.911 158.124 117.811 158.124 118.919V129.008H155.236V126.931H155.117C154.926 127.314 154.639 127.689 154.257 128.059C153.874 128.428 153.383 128.735 152.783 128.979C152.183 129.223 151.464 129.345 150.627 129.345ZM151.269 126.971C152.087 126.971 152.786 126.809 153.367 126.486C153.953 126.163 154.399 125.741 154.702 125.22C155.012 124.692 155.167 124.128 155.167 123.528V121.57C155.061 121.675 154.857 121.774 154.554 121.866C154.257 121.952 153.917 122.028 153.535 122.094C153.152 122.153 152.78 122.209 152.417 122.262C152.054 122.308 151.751 122.348 151.507 122.381C150.933 122.453 150.409 122.575 149.934 122.747C149.466 122.918 149.09 123.166 148.806 123.489C148.529 123.805 148.391 124.227 148.391 124.755C148.391 125.487 148.661 126.041 149.202 126.417C149.743 126.786 150.432 126.971 151.269 126.971ZM165.021 108.75V129.008H162.064V108.75H165.021ZM175.549 129.315C174.052 129.315 172.763 128.995 171.681 128.355C170.606 127.709 169.775 126.802 169.188 125.635C168.608 124.461 168.318 123.086 168.318 121.51C168.318 119.954 168.608 118.582 169.188 117.395C169.775 116.208 170.593 115.282 171.641 114.616C172.697 113.95 173.93 113.617 175.341 113.617C176.198 113.617 177.029 113.759 177.834 114.042C178.638 114.326 179.36 114.771 180 115.378C180.64 115.984 181.144 116.772 181.513 117.742C181.883 118.704 182.067 119.875 182.067 121.253V122.302H169.99V120.086H179.169C179.169 119.308 179.011 118.619 178.694 118.019C178.378 117.412 177.933 116.934 177.359 116.584C176.792 116.235 176.126 116.06 175.361 116.06C174.53 116.06 173.804 116.264 173.185 116.673C172.571 117.076 172.096 117.603 171.76 118.256C171.43 118.902 171.266 119.605 171.266 120.363V122.094C171.266 123.11 171.444 123.973 171.8 124.686C172.162 125.398 172.667 125.942 173.313 126.318C173.959 126.687 174.714 126.872 175.578 126.872C176.139 126.872 176.65 126.793 177.112 126.634C177.573 126.469 177.972 126.225 178.308 125.902C178.645 125.579 178.902 125.18 179.08 124.705L181.879 125.21C181.655 126.034 181.253 126.756 180.673 127.376C180.099 127.989 179.377 128.468 178.506 128.81C177.642 129.147 176.657 129.315 175.549 129.315ZM196.734 117.524L194.054 117.999C193.942 117.656 193.763 117.329 193.519 117.02C193.282 116.71 192.959 116.456 192.55 116.258C192.141 116.06 191.63 115.961 191.017 115.961C190.179 115.961 189.48 116.149 188.92 116.525C188.359 116.894 188.079 117.372 188.079 117.959C188.079 118.467 188.267 118.876 188.643 119.186C189.019 119.496 189.625 119.75 190.463 119.947L192.877 120.501C194.275 120.825 195.316 121.322 196.002 121.995C196.688 122.668 197.031 123.541 197.031 124.616C197.031 125.526 196.767 126.338 196.24 127.05C195.719 127.755 194.99 128.309 194.054 128.712C193.124 129.114 192.046 129.315 190.819 129.315C189.118 129.315 187.73 128.952 186.655 128.227C185.58 127.495 184.92 126.456 184.676 125.111L187.535 124.676C187.713 125.421 188.079 125.985 188.633 126.367C189.187 126.743 189.909 126.931 190.799 126.931C191.769 126.931 192.543 126.73 193.124 126.328C193.704 125.919 193.994 125.421 193.994 124.834C193.994 124.359 193.816 123.96 193.46 123.637C193.111 123.314 192.573 123.07 191.848 122.905L189.276 122.341C187.858 122.018 186.81 121.504 186.13 120.798C185.458 120.093 185.121 119.199 185.121 118.118C185.121 117.221 185.372 116.436 185.873 115.763C186.374 115.091 187.067 114.566 187.95 114.191C188.834 113.808 189.846 113.617 190.987 113.617C192.629 113.617 193.922 113.973 194.865 114.685C195.808 115.391 196.431 116.337 196.734 117.524ZM207.892 129.008V108.75H215.113C216.689 108.75 217.995 109.037 219.03 109.611C220.066 110.184 220.84 110.969 221.355 111.965C221.869 112.954 222.126 114.069 222.126 115.308C222.126 116.555 221.866 117.676 221.345 118.671C220.83 119.661 220.052 120.445 219.01 121.026C217.975 121.599 216.673 121.886 215.103 121.886H210.138V119.295H214.826C215.822 119.295 216.63 119.123 217.25 118.78C217.87 118.431 218.325 117.956 218.615 117.356C218.905 116.756 219.05 116.073 219.05 115.308C219.05 114.543 218.905 113.864 218.615 113.271C218.325 112.677 217.866 112.212 217.24 111.876C216.62 111.54 215.802 111.371 214.787 111.371H210.949V129.008H207.892ZM225.472 129.008V113.815H228.331V116.228H228.489C228.766 115.41 229.254 114.768 229.953 114.299C230.659 113.825 231.457 113.587 232.347 113.587C232.532 113.587 232.749 113.594 233 113.607C233.257 113.62 233.458 113.637 233.603 113.656V116.485C233.484 116.452 233.273 116.416 232.97 116.377C232.667 116.33 232.363 116.307 232.06 116.307C231.361 116.307 230.738 116.456 230.191 116.752C229.65 117.043 229.221 117.448 228.905 117.969C228.588 118.484 228.43 119.07 228.43 119.73V129.008H225.472ZM242.019 129.315C240.594 129.315 239.351 128.989 238.289 128.336C237.228 127.683 236.403 126.769 235.816 125.596C235.23 124.422 234.936 123.05 234.936 121.481C234.936 119.905 235.23 118.526 235.816 117.346C236.403 116.166 237.228 115.249 238.289 114.596C239.351 113.943 240.594 113.617 242.019 113.617C243.443 113.617 244.686 113.943 245.748 114.596C246.809 115.249 247.634 116.166 248.221 117.346C248.808 118.526 249.101 119.905 249.101 121.481C249.101 123.05 248.808 124.422 248.221 125.596C247.634 126.769 246.809 127.683 245.748 128.336C244.686 128.989 243.443 129.315 242.019 129.315ZM242.028 126.832C242.952 126.832 243.717 126.588 244.323 126.1C244.93 125.612 245.378 124.963 245.669 124.151C245.965 123.34 246.114 122.447 246.114 121.471C246.114 120.501 245.965 119.611 245.669 118.8C245.378 117.982 244.93 117.326 244.323 116.832C243.717 116.337 242.952 116.09 242.028 116.09C241.099 116.09 240.327 116.337 239.714 116.832C239.107 117.326 238.655 117.982 238.359 118.8C238.068 119.611 237.923 120.501 237.923 121.471C237.923 122.447 238.068 123.34 238.359 124.151C238.655 124.963 239.107 125.612 239.714 126.1C240.327 126.588 241.099 126.832 242.028 126.832ZM258.802 129.315C257.332 129.315 256.066 128.982 255.004 128.316C253.949 127.643 253.138 126.717 252.571 125.536C252.003 124.356 251.72 123.004 251.72 121.481C251.72 119.938 252.01 118.576 252.59 117.395C253.171 116.208 253.988 115.282 255.043 114.616C256.099 113.95 257.342 113.617 258.773 113.617C259.927 113.617 260.955 113.831 261.859 114.26C262.762 114.682 263.491 115.275 264.045 116.04C264.605 116.805 264.938 117.699 265.044 118.721H262.165C262.007 118.009 261.645 117.395 261.077 116.881C260.517 116.367 259.765 116.11 258.822 116.11C257.998 116.11 257.276 116.327 256.656 116.762C256.043 117.191 255.564 117.804 255.221 118.602C254.879 119.394 254.707 120.33 254.707 121.411C254.707 122.519 254.875 123.476 255.212 124.28C255.548 125.085 256.023 125.708 256.636 126.15C257.256 126.591 257.985 126.812 258.822 126.812C259.383 126.812 259.89 126.71 260.345 126.506C260.807 126.295 261.193 125.995 261.503 125.606C261.819 125.216 262.04 124.748 262.165 124.201H265.044C264.938 125.184 264.619 126.061 264.084 126.832C263.55 127.604 262.835 128.21 261.938 128.652C261.048 129.094 260.002 129.315 258.802 129.315ZM274.755 129.315C273.258 129.315 271.969 128.995 270.887 128.355C269.813 127.709 268.982 126.802 268.395 125.635C267.814 124.461 267.524 123.086 267.524 121.51C267.524 119.954 267.814 118.582 268.395 117.395C268.982 116.208 269.799 115.282 270.848 114.616C271.903 113.95 273.136 113.617 274.547 113.617C275.405 113.617 276.236 113.759 277.04 114.042C277.845 114.326 278.567 114.771 279.206 115.378C279.846 115.984 280.351 116.772 280.72 117.742C281.089 118.704 281.274 119.875 281.274 121.253V122.302H269.196V120.086H278.376C278.376 119.308 278.217 118.619 277.901 118.019C277.584 117.412 277.139 116.934 276.565 116.584C275.998 116.235 275.332 116.06 274.567 116.06C273.736 116.06 273.011 116.264 272.391 116.673C271.778 117.076 271.303 117.603 270.967 118.256C270.637 118.902 270.472 119.605 270.472 120.363V122.094C270.472 123.11 270.65 123.973 271.006 124.686C271.369 125.398 271.873 125.942 272.52 126.318C273.166 126.687 273.921 126.872 274.785 126.872C275.345 126.872 275.856 126.793 276.318 126.634C276.78 126.469 277.179 126.225 277.515 125.902C277.851 125.579 278.108 125.18 278.286 124.705L281.086 125.21C280.862 126.034 280.459 126.756 279.879 127.376C279.305 127.989 278.583 128.468 277.713 128.81C276.849 129.147 275.863 129.315 274.755 129.315ZM295.941 117.524L293.26 117.999C293.148 117.656 292.97 117.329 292.726 117.02C292.489 116.71 292.165 116.456 291.757 116.258C291.348 116.06 290.837 115.961 290.223 115.961C289.386 115.961 288.687 116.149 288.126 116.525C287.566 116.894 287.285 117.372 287.285 117.959C287.285 118.467 287.473 118.876 287.849 119.186C288.225 119.496 288.832 119.75 289.669 119.947L292.083 120.501C293.481 120.825 294.523 121.322 295.209 121.995C295.895 122.668 296.237 123.541 296.237 124.616C296.237 125.526 295.974 126.338 295.446 127.05C294.925 127.755 294.196 128.309 293.26 128.712C292.33 129.114 291.252 129.315 290.025 129.315C288.324 129.315 286.936 128.952 285.861 128.227C284.786 127.495 284.127 126.456 283.883 125.111L286.741 124.676C286.919 125.421 287.285 125.985 287.839 126.367C288.393 126.743 289.115 126.931 290.006 126.931C290.975 126.931 291.75 126.73 292.33 126.328C292.911 125.919 293.201 125.421 293.201 124.834C293.201 124.359 293.023 123.96 292.667 123.637C292.317 123.314 291.78 123.07 291.054 122.905L288.482 122.341C287.065 122.018 286.016 121.504 285.337 120.798C284.664 120.093 284.328 119.199 284.328 118.118C284.328 117.221 284.578 116.436 285.08 115.763C285.581 115.091 286.273 114.566 287.157 114.191C288.041 113.808 289.053 113.617 290.194 113.617C291.836 113.617 293.128 113.973 294.071 114.685C295.014 115.391 295.637 116.337 295.941 117.524ZM310.875 117.524L308.194 117.999C308.082 117.656 307.904 117.329 307.66 117.02C307.423 116.71 307.099 116.456 306.691 116.258C306.282 116.06 305.771 115.961 305.157 115.961C304.32 115.961 303.621 116.149 303.06 116.525C302.5 116.894 302.219 117.372 302.219 117.959C302.219 118.467 302.407 118.876 302.783 119.186C303.159 119.496 303.766 119.75 304.603 119.947L307.017 120.501C308.415 120.825 309.457 121.322 310.143 121.995C310.829 122.668 311.171 123.541 311.171 124.616C311.171 125.526 310.908 126.338 310.38 127.05C309.859 127.755 309.131 128.309 308.194 128.712C307.264 129.114 306.186 129.315 304.959 129.315C303.258 129.315 301.87 128.952 300.795 128.227C299.72 127.495 299.061 126.456 298.817 125.111L301.675 124.676C301.853 125.421 302.219 125.985 302.773 126.367C303.327 126.743 304.049 126.931 304.94 126.931C305.909 126.931 306.684 126.73 307.264 126.328C307.845 125.919 308.135 125.421 308.135 124.834C308.135 124.359 307.957 123.96 307.601 123.637C307.251 123.314 306.714 123.07 305.988 122.905L303.416 122.341C301.999 122.018 300.95 121.504 300.271 120.798C299.598 120.093 299.262 119.199 299.262 118.118C299.262 117.221 299.512 116.436 300.014 115.763C300.515 115.091 301.207 114.566 302.091 114.191C302.975 113.808 303.987 113.617 305.128 113.617C306.77 113.617 308.062 113.973 309.005 114.685C309.948 115.391 310.571 116.337 310.875 117.524Z" fill="#122532"/>
</g>
</g>
<rect x="5" y="5" width="615" height="438" rx="17" stroke="white" stroke-opacity="0.6" stroke-width="10"/>
<defs>
<filter id="filter0_d_207_7089" x="78.9889" y="67.4413" width="467.932" height="323.731" filterUnits="userSpaceOnUse" color-interpolation-filters="sRGB">
<feFlood flood-opacity="0" result="BackgroundImageFix"/>
<feColorMatrix in="SourceAlpha" type="matrix" values="0 0 0 0 0 0 0 0 0 0 0 0 0 0 0 0 0 0 127 0" result="hardAlpha"/>
<feOffset dy="5.30707"/>
<feGaussianBlur stdDeviation="7.96061"/>
<feComposite in2="hardAlpha" operator="out"/>
<feColorMatrix type="matrix" values="0 0 0 0 0.772549 0 0 0 0 0.772549 0 0 0 0 0.772549 0 0 0 0.25 0"/>
<feBlend mode="normal" in2="BackgroundImageFix" result="effect1_dropShadow_207_7089"/>
<feBlend mode="normal" in="SourceGraphic" in2="effect1_dropShadow_207_7089" result="shape"/>
</filter>
<clipPath id="clip0_207_7089">
<rect x="10" y="10" width="605" height="428" rx="12" fill="white"/>
</clipPath>
<clipPath id="clip1_207_7089">
<rect x="94.9102" y="139.087" width="435.18" height="228.204" rx="21.2283" fill="white"/>
</clipPath>
</defs>
</svg>
