<svg width="625" height="448" viewBox="0 0 625 448" fill="none" xmlns="http://www.w3.org/2000/svg">
<g clip-path="url(#clip0_207_7381)">
<rect x="10" y="10" width="605" height="428" rx="12" fill="#E8DBF5"/>
<circle cx="312" cy="224" r="249.5" stroke="#ECECEC"/>
<circle cx="312.5" cy="224.5" r="307" stroke="#ECECEC"/>
<circle cx="312.5" cy="223.5" r="353" stroke="#ECECEC"/>
<circle cx="313" cy="223" r="410.5" stroke="#EEECEB"/>
<circle cx="312.5" cy="223.5" r="463" stroke="#EEECEB"/>
<circle cx="312" cy="224" r="179.5" stroke="#ECECEC"/>
<path d="M312 105.5C376.891 105.5 429.5 158.328 429.5 223.5C429.5 288.672 376.891 341.5 312 341.5C247.109 341.5 194.5 288.672 194.5 223.5C194.5 158.328 247.109 105.5 312 105.5Z" stroke="#EEECEB"/>
<g filter="url(#filter0_d_207_7381)">
<rect x="95" y="50" width="435" height="348" rx="32" fill="white" shape-rendering="crispEdges"/>
<rect x="96.0322" y="51.0322" width="432.936" height="345.936" rx="30.9678" stroke="#F3F3F3" stroke-width="2.0644" shape-rendering="crispEdges"/>
<path d="M128.289 97.9294V80.4749H134.51C135.863 80.4749 136.985 80.7079 137.877 81.1738C138.775 81.6397 139.445 82.2846 139.888 83.1084C140.331 83.9266 140.553 84.8726 140.553 85.9465C140.553 87.0147 140.328 87.955 139.88 88.7675C139.436 89.5743 138.766 90.2022 137.868 90.651C136.976 91.0999 135.854 91.3243 134.502 91.3243H129.789V89.0573H134.263C135.115 89.0573 135.809 88.9351 136.343 88.6908C136.882 88.4465 137.277 88.0914 137.527 87.6255C137.777 87.1596 137.902 86.5999 137.902 85.9465C137.902 85.2874 137.775 84.7164 137.519 84.2334C137.269 83.7505 136.874 83.3811 136.334 83.1255C135.8 82.8641 135.098 82.7334 134.229 82.7334H130.922V97.9294H128.289ZM136.905 90.0544L141.218 97.9294H138.218L133.99 90.0544H136.905ZM149.031 98.1936C147.741 98.1936 146.63 97.9181 145.699 97.3669C144.772 96.8101 144.056 96.0289 143.551 95.0232C143.051 94.0118 142.801 92.8272 142.801 91.4692C142.801 90.1283 143.051 88.9465 143.551 87.9238C144.056 86.901 144.761 86.1027 145.664 85.5289C146.574 84.955 147.636 84.6681 148.852 84.6681C149.591 84.6681 150.306 84.7902 151 85.0346C151.693 85.2789 152.315 85.6624 152.866 86.1851C153.417 86.7079 153.852 87.3868 154.17 88.2221C154.488 89.0516 154.647 90.0601 154.647 91.2476V92.151H144.241V90.2419H152.15C152.15 89.5715 152.014 88.9777 151.741 88.4607C151.468 87.938 151.085 87.526 150.591 87.2249C150.102 86.9238 149.528 86.7732 148.869 86.7732C148.153 86.7732 147.528 86.9493 146.994 87.3016C146.466 87.6482 146.056 88.1027 145.767 88.6652C145.483 89.2221 145.341 89.8272 145.341 90.4806V91.9721C145.341 92.8471 145.494 93.5914 145.801 94.205C146.113 94.8186 146.548 95.2874 147.105 95.6113C147.662 95.9294 148.312 96.0885 149.056 96.0885C149.539 96.0885 149.98 96.0204 150.377 95.884C150.775 95.7419 151.119 95.5317 151.409 95.2533C151.699 94.9749 151.92 94.6311 152.074 94.2221L154.485 94.6567C154.292 95.3669 153.946 95.9891 153.446 96.5232C152.951 97.0516 152.329 97.4635 151.579 97.759C150.835 98.0488 149.985 98.1936 149.031 98.1936ZM168.299 84.8385L163.551 97.9294H160.824L156.069 84.8385H158.804L162.12 94.9124H162.256L165.563 84.8385H168.299ZM175.89 98.1936C174.6 98.1936 173.49 97.9181 172.558 97.3669C171.632 96.8101 170.916 96.0289 170.41 95.0232C169.91 94.0118 169.66 92.8272 169.66 91.4692C169.66 90.1283 169.91 88.9465 170.41 87.9238C170.916 86.901 171.62 86.1027 172.524 85.5289C173.433 84.955 174.495 84.6681 175.711 84.6681C176.45 84.6681 177.166 84.7902 177.859 85.0346C178.552 85.2789 179.174 85.6624 179.725 86.1851C180.277 86.7079 180.711 87.3868 181.029 88.2221C181.348 89.0516 181.507 90.0601 181.507 91.2476V92.151H171.1V90.2419H179.01C179.01 89.5715 178.873 88.9777 178.6 88.4607C178.328 87.938 177.944 87.526 177.45 87.2249C176.961 86.9238 176.387 86.7732 175.728 86.7732C175.012 86.7732 174.387 86.9493 173.853 87.3016C173.325 87.6482 172.916 88.1027 172.626 88.6652C172.342 89.2221 172.2 89.8272 172.2 90.4806V91.9721C172.2 92.8471 172.353 93.5914 172.66 94.205C172.973 94.8186 173.407 95.2874 173.964 95.6113C174.521 95.9294 175.172 96.0885 175.916 96.0885C176.399 96.0885 176.839 96.0204 177.237 95.884C177.635 95.7419 177.978 95.5317 178.268 95.2533C178.558 94.9749 178.779 94.6311 178.933 94.2221L181.345 94.6567C181.152 95.3669 180.805 95.9891 180.305 96.5232C179.811 97.0516 179.189 97.4635 178.439 97.759C177.694 98.0488 176.845 98.1936 175.89 98.1936ZM186.882 90.1567V97.9294H184.334V84.8385H186.78V86.9692H186.942C187.243 86.276 187.715 85.7192 188.357 85.2988C189.005 84.8783 189.82 84.6681 190.803 84.6681C191.695 84.6681 192.476 84.8556 193.147 85.2306C193.817 85.5999 194.337 86.151 194.706 86.884C195.076 87.6169 195.26 88.5232 195.26 89.6027V97.9294H192.712V89.9096C192.712 88.9607 192.465 88.2192 191.971 87.6851C191.476 87.1454 190.797 86.8755 189.934 86.8755C189.343 86.8755 188.817 87.0033 188.357 87.259C187.902 87.5147 187.542 87.8897 187.275 88.384C187.013 88.8726 186.882 89.4635 186.882 90.1567ZM206.971 92.5005V84.8385H209.527V97.9294H207.022V95.6624H206.885C206.584 96.3613 206.101 96.9436 205.436 97.4096C204.777 97.8698 203.956 98.0999 202.973 98.0999C202.132 98.0999 201.388 97.9152 200.74 97.5459C200.098 97.1709 199.593 96.6169 199.223 95.884C198.86 95.151 198.678 94.2448 198.678 93.1652V84.8385H201.226V92.8584C201.226 93.7505 201.473 94.4607 201.968 94.9891C202.462 95.5175 203.104 95.7817 203.894 95.7817C204.371 95.7817 204.846 95.6624 205.317 95.4238C205.794 95.1851 206.189 94.8243 206.502 94.3414C206.82 93.8584 206.976 93.2448 206.971 92.5005ZM218.593 98.1936C217.304 98.1936 216.193 97.9181 215.261 97.3669C214.335 96.8101 213.619 96.0289 213.113 95.0232C212.613 94.0118 212.363 92.8272 212.363 91.4692C212.363 90.1283 212.613 88.9465 213.113 87.9238C213.619 86.901 214.324 86.1027 215.227 85.5289C216.136 84.955 217.199 84.6681 218.414 84.6681C219.153 84.6681 219.869 84.7902 220.562 85.0346C221.255 85.2789 221.877 85.6624 222.429 86.1851C222.98 86.7079 223.414 87.3868 223.733 88.2221C224.051 89.0516 224.21 90.0601 224.21 91.2476V92.151H213.804V90.2419H221.713C221.713 89.5715 221.576 88.9777 221.304 88.4607C221.031 87.938 220.647 87.526 220.153 87.2249C219.664 86.9238 219.091 86.7732 218.431 86.7732C217.716 86.7732 217.091 86.9493 216.556 87.3016C216.028 87.6482 215.619 88.1027 215.329 88.6652C215.045 89.2221 214.903 89.8272 214.903 90.4806V91.9721C214.903 92.8471 215.056 93.5914 215.363 94.205C215.676 94.8186 216.11 95.2874 216.667 95.6113C217.224 95.9294 217.875 96.0885 218.619 96.0885C219.102 96.0885 219.542 96.0204 219.94 95.884C220.338 95.7419 220.681 95.5317 220.971 95.2533C221.261 94.9749 221.483 94.6311 221.636 94.2221L224.048 94.6567C223.855 95.3669 223.508 95.9891 223.008 96.5232C222.514 97.0516 221.892 97.4635 221.142 97.759C220.397 98.0488 219.548 98.1936 218.593 98.1936ZM233.593 97.9294V80.4749H239.815C241.173 80.4749 242.298 80.7221 243.19 81.2164C244.082 81.7107 244.75 82.3868 245.193 83.2448C245.636 84.0971 245.858 85.0573 245.858 86.1255C245.858 87.1993 245.633 88.1652 245.184 89.0232C244.741 89.8755 244.071 90.5516 243.173 91.0516C242.281 91.5459 241.159 91.7931 239.806 91.7931H235.528V89.5601H239.568C240.426 89.5601 241.122 89.4124 241.656 89.1169C242.19 88.8158 242.582 88.4067 242.832 87.8897C243.082 87.3726 243.207 86.7846 243.207 86.1255C243.207 85.4664 243.082 84.8811 242.832 84.3698C242.582 83.8584 242.187 83.4579 241.647 83.1681C241.113 82.8783 240.409 82.7334 239.534 82.7334H236.227V97.9294H233.593ZM248.74 97.9294V84.8385H251.203V86.9181H251.34C251.578 86.2135 251.999 85.6596 252.601 85.2561C253.209 84.8471 253.897 84.6425 254.664 84.6425C254.823 84.6425 255.01 84.6482 255.226 84.6596C255.448 84.6709 255.621 84.6851 255.746 84.7022V87.1397C255.644 87.1113 255.462 87.08 255.201 87.0459C254.939 87.0061 254.678 86.9863 254.417 86.9863C253.814 86.9863 253.277 87.1141 252.806 87.3698C252.34 87.6198 251.971 87.9692 251.698 88.4181C251.425 88.8613 251.289 89.3669 251.289 89.9351V97.9294H248.74ZM262.997 98.1936C261.77 98.1936 260.699 97.9124 259.784 97.3499C258.869 96.7874 258.159 96.0005 257.653 94.9891C257.147 93.9777 256.895 92.7959 256.895 91.4436C256.895 90.0857 257.147 88.8982 257.653 87.8811C258.159 86.8641 258.869 86.0743 259.784 85.5118C260.699 84.9493 261.77 84.6681 262.997 84.6681C264.224 84.6681 265.295 84.9493 266.21 85.5118C267.125 86.0743 267.835 86.8641 268.341 87.8811C268.846 88.8982 269.099 90.0857 269.099 91.4436C269.099 92.7959 268.846 93.9777 268.341 94.9891C267.835 96.0005 267.125 96.7874 266.21 97.3499C265.295 97.9124 264.224 98.1936 262.997 98.1936ZM263.005 96.0544C263.801 96.0544 264.46 95.8442 264.983 95.4238C265.505 95.0033 265.892 94.4436 266.142 93.7448C266.397 93.0459 266.525 92.276 266.525 91.4351C266.525 90.5999 266.397 89.8329 266.142 89.134C265.892 88.4294 265.505 87.8641 264.983 87.438C264.46 87.0118 263.801 86.7988 263.005 86.7988C262.204 86.7988 261.539 87.0118 261.011 87.438C260.488 87.8641 260.099 88.4294 259.843 89.134C259.593 89.8329 259.468 90.5999 259.468 91.4351C259.468 92.276 259.593 93.0459 259.843 93.7448C260.099 94.4436 260.488 95.0033 261.011 95.4238C261.539 95.8442 262.204 96.0544 263.005 96.0544ZM271.944 84.8385H274.492V98.7817C274.492 99.6567 274.333 100.395 274.015 100.998C273.702 101.6 273.236 102.057 272.617 102.37C272.003 102.682 271.245 102.839 270.341 102.839C270.25 102.839 270.165 102.839 270.086 102.839C270 102.839 269.912 102.836 269.821 102.83V100.64C269.901 100.64 269.972 100.64 270.034 100.64C270.091 100.64 270.157 100.64 270.23 100.64C270.833 100.64 271.267 100.478 271.534 100.154C271.807 99.8357 271.944 99.3726 271.944 98.7647V84.8385ZM273.205 82.8186C272.762 82.8186 272.381 82.6709 272.063 82.3755C271.75 82.0743 271.594 81.7164 271.594 81.3016C271.594 80.8811 271.75 80.5232 272.063 80.2277C272.381 79.9266 272.762 79.776 273.205 79.776C273.648 79.776 274.026 79.9266 274.338 80.2277C274.657 80.5232 274.816 80.8811 274.816 81.3016C274.816 81.7164 274.657 82.0743 274.338 82.3755C274.026 82.6709 273.648 82.8186 273.205 82.8186ZM283.562 98.1936C282.272 98.1936 281.162 97.9181 280.23 97.3669C279.304 96.8101 278.588 96.0289 278.082 95.0232C277.582 94.0118 277.332 92.8272 277.332 91.4692C277.332 90.1283 277.582 88.9465 278.082 87.9238C278.588 86.901 279.292 86.1027 280.196 85.5289C281.105 84.955 282.167 84.6681 283.383 84.6681C284.122 84.6681 284.838 84.7902 285.531 85.0346C286.224 85.2789 286.846 85.6624 287.397 86.1851C287.949 86.7079 288.383 87.3868 288.701 88.2221C289.02 89.0516 289.179 90.0601 289.179 91.2476V92.151H278.772V90.2419H286.681C286.681 89.5715 286.545 88.9777 286.272 88.4607C286 87.938 285.616 87.526 285.122 87.2249C284.633 86.9238 284.059 86.7732 283.4 86.7732C282.684 86.7732 282.059 86.9493 281.525 87.3016C280.997 87.6482 280.588 88.1027 280.298 88.6652C280.014 89.2221 279.872 89.8272 279.872 90.4806V91.9721C279.872 92.8471 280.025 93.5914 280.332 94.205C280.645 94.8186 281.079 95.2874 281.636 95.6113C282.193 95.9294 282.843 96.0885 283.588 96.0885C284.071 96.0885 284.511 96.0204 284.909 95.884C285.306 95.7419 285.65 95.5317 285.94 95.2533C286.23 94.9749 286.451 94.6311 286.605 94.2221L289.017 94.6567C288.824 95.3669 288.477 95.9891 287.977 96.5232C287.483 97.0516 286.86 97.4635 286.11 97.759C285.366 98.0488 284.517 98.1936 283.562 98.1936ZM297.52 98.1936C296.253 98.1936 295.162 97.9067 294.248 97.3329C293.338 96.7533 292.64 95.955 292.151 94.938C291.662 93.9209 291.418 92.7561 291.418 91.4436C291.418 90.1141 291.668 88.9408 292.168 87.9238C292.668 86.901 293.373 86.1027 294.282 85.5289C295.191 84.955 296.262 84.6681 297.495 84.6681C298.489 84.6681 299.375 84.8527 300.154 85.2221C300.932 85.5857 301.56 86.0971 302.037 86.7561C302.52 87.4152 302.807 88.1851 302.898 89.0658H300.418C300.282 88.4522 299.969 87.9238 299.48 87.4806C298.998 87.0374 298.35 86.8158 297.537 86.8158C296.827 86.8158 296.205 87.0033 295.671 87.3783C295.142 87.7476 294.73 88.276 294.435 88.9635C294.14 89.6454 293.992 90.4522 293.992 91.384C293.992 92.3385 294.137 93.1624 294.426 93.8556C294.716 94.5488 295.125 95.0857 295.654 95.4664C296.188 95.8471 296.816 96.0374 297.537 96.0374C298.02 96.0374 298.458 95.9493 298.85 95.7732C299.248 95.5914 299.58 95.3329 299.847 94.9976C300.12 94.6624 300.31 94.259 300.418 93.7874H302.898C302.807 94.634 302.532 95.3897 302.071 96.0544C301.611 96.7192 300.995 97.2419 300.222 97.6226C299.455 98.0033 298.554 98.1936 297.52 98.1936ZM311.734 84.8385V86.884H304.583V84.8385H311.734ZM306.501 81.7022H309.049V94.0857C309.049 94.58 309.123 94.9522 309.271 95.2022C309.419 95.4465 309.609 95.6141 309.842 95.705C310.081 95.7902 310.339 95.8329 310.618 95.8329C310.822 95.8329 311.001 95.8186 311.154 95.7902C311.308 95.7618 311.427 95.7391 311.512 95.7221L311.973 97.8272C311.825 97.884 311.615 97.9408 311.342 97.9976C311.069 98.0601 310.728 98.0942 310.319 98.0999C309.649 98.1113 309.024 97.9919 308.444 97.7419C307.865 97.4919 307.396 97.1056 307.038 96.5829C306.68 96.0601 306.501 95.4039 306.501 94.6141V81.7022ZM314.553 97.9294V84.8385H317.101V97.9294H314.553ZM315.84 82.8186C315.397 82.8186 315.016 82.6709 314.698 82.3755C314.385 82.0743 314.229 81.7164 314.229 81.3016C314.229 80.8811 314.385 80.5232 314.698 80.2277C315.016 79.9266 315.397 79.776 315.84 79.776C316.283 79.776 316.661 79.9266 316.973 80.2277C317.292 80.5232 317.451 80.8811 317.451 81.3016C317.451 81.7164 317.292 82.0743 316.973 82.3755C316.661 82.6709 316.283 82.8186 315.84 82.8186ZM326.044 98.1936C324.816 98.1936 323.745 97.9124 322.831 97.3499C321.916 96.7874 321.206 96.0005 320.7 94.9891C320.194 93.9777 319.941 92.7959 319.941 91.4436C319.941 90.0857 320.194 88.8982 320.7 87.8811C321.206 86.8641 321.916 86.0743 322.831 85.5118C323.745 84.9493 324.816 84.6681 326.044 84.6681C327.271 84.6681 328.342 84.9493 329.257 85.5118C330.172 86.0743 330.882 86.8641 331.387 87.8811C331.893 88.8982 332.146 90.0857 332.146 91.4436C332.146 92.7959 331.893 93.9777 331.387 94.9891C330.882 96.0005 330.172 96.7874 329.257 97.3499C328.342 97.9124 327.271 98.1936 326.044 98.1936ZM326.052 96.0544C326.848 96.0544 327.507 95.8442 328.029 95.4238C328.552 95.0033 328.939 94.4436 329.189 93.7448C329.444 93.0459 329.572 92.276 329.572 91.4351C329.572 90.5999 329.444 89.8329 329.189 89.134C328.939 88.4294 328.552 87.8641 328.029 87.438C327.507 87.0118 326.848 86.7988 326.052 86.7988C325.251 86.7988 324.586 87.0118 324.058 87.438C323.535 87.8641 323.146 88.4294 322.89 89.134C322.64 89.8329 322.515 90.5999 322.515 91.4351C322.515 92.276 322.64 93.0459 322.89 93.7448C323.146 94.4436 323.535 95.0033 324.058 95.4238C324.586 95.8442 325.251 96.0544 326.052 96.0544ZM337.539 90.1567V97.9294H334.99V84.8385H337.436V86.9692H337.598C337.9 86.276 338.371 85.7192 339.013 85.2988C339.661 84.8783 340.476 84.6681 341.459 84.6681C342.351 84.6681 343.132 84.8556 343.803 85.2306C344.473 85.5999 344.993 86.151 345.363 86.884C345.732 87.6169 345.917 88.5232 345.917 89.6027V97.9294H343.368V89.9096C343.368 88.9607 343.121 88.2192 342.627 87.6851C342.132 87.1454 341.453 86.8755 340.59 86.8755C339.999 86.8755 339.473 87.0033 339.013 87.259C338.559 87.5147 338.198 87.8897 337.931 88.384C337.669 88.8726 337.539 89.4635 337.539 90.1567ZM359.144 88.0346L356.834 88.4436C356.738 88.1482 356.584 87.8669 356.374 87.5999C356.169 87.3329 355.891 87.1141 355.539 86.9436C355.186 86.7732 354.746 86.688 354.218 86.688C353.496 86.688 352.894 86.8499 352.411 87.1738C351.928 87.4919 351.686 87.9039 351.686 88.4096C351.686 88.8471 351.848 89.1993 352.172 89.4664C352.496 89.7334 353.019 89.9522 353.74 90.1226L355.82 90.5999C357.025 90.8783 357.922 91.3073 358.513 91.8868C359.104 92.4664 359.4 93.2192 359.4 94.1454C359.4 94.9294 359.172 95.6283 358.718 96.2419C358.269 96.8499 357.641 97.3272 356.834 97.6738C356.033 98.0204 355.104 98.1936 354.047 98.1936C352.581 98.1936 351.385 97.8811 350.459 97.2561C349.533 96.6255 348.965 95.7306 348.755 94.5715L351.218 94.1965C351.371 94.8385 351.686 95.3243 352.164 95.6539C352.641 95.9777 353.263 96.1397 354.03 96.1397C354.865 96.1397 355.533 95.9664 356.033 95.6198C356.533 95.2675 356.783 94.8385 356.783 94.3329C356.783 93.9238 356.63 93.58 356.323 93.3016C356.022 93.0232 355.559 92.813 354.934 92.6709L352.718 92.1851C351.496 91.9067 350.593 91.4635 350.007 90.8556C349.428 90.2476 349.138 89.4777 349.138 88.5459C349.138 87.7732 349.354 87.0971 349.786 86.5175C350.218 85.938 350.814 85.4863 351.576 85.1624C352.337 84.8329 353.209 84.6681 354.192 84.6681C355.607 84.6681 356.721 84.9749 357.533 85.5885C358.346 86.1965 358.882 87.0118 359.144 88.0346Z" fill="#122532"/>
<rect x="125.93" y="291.022" width="55.7474" height="58" rx="10.3098" fill="#A199DD"/>
<rect x="189.409" y="277.022" width="55.7474" height="72" rx="10.3098" fill="#CEC7FF"/>
<rect x="252.887" y="232.022" width="55.7474" height="117" rx="10.3098" fill="#A199DD"/>
<rect x="316.366" y="198.022" width="55.7474" height="151" rx="10.3098" fill="#CEC7FF"/>
<rect x="379.844" y="178.022" width="55.7474" height="171" rx="10.3098" fill="#A199DD"/>
<rect x="443.323" y="143.022" width="55.7474" height="206" rx="10.3098" fill="#CEC7FF"/>
</g>
<rect x="498" y="86" width="64" height="64" rx="32" fill="#01373D"/>
<path d="M522.5 110.5H537.5M537.5 110.5V125.5M537.5 110.5L522.5 125.5" stroke="#CEC7FF" stroke-width="4" stroke-linecap="round" stroke-linejoin="round"/>
<rect x="63" y="145.742" width="64" height="64" rx="32" fill="#01373D"/>
<path fill-rule="evenodd" clip-rule="evenodd" d="M91.2148 170.002C90.223 170.746 89.7748 171.637 89.7748 172.468C89.7748 173.3 90.223 174.193 91.2148 174.938C92.2084 175.683 93.6628 176.198 95.3458 176.198C95.8232 176.198 96.281 176.388 96.6186 176.725C96.9562 177.063 97.1458 177.521 97.1458 177.998C97.1458 178.475 96.9562 178.933 96.6186 179.271C96.281 179.608 95.8232 179.798 95.3458 179.798C92.959 179.798 90.7288 179.074 89.0548 177.818C87.3808 176.562 86.1748 174.69 86.1748 172.47C86.1748 170.251 87.3808 168.377 89.0548 167.121C90.7288 165.866 92.9608 165.142 95.3458 165.142C99.0412 165.142 102.535 166.912 103.925 169.858C104.025 170.072 104.083 170.304 104.094 170.54C104.106 170.776 104.07 171.013 103.99 171.235C103.91 171.458 103.787 171.662 103.628 171.837C103.469 172.012 103.277 172.154 103.063 172.255C102.849 172.356 102.618 172.414 102.381 172.425C102.145 172.436 101.909 172.401 101.687 172.321C101.464 172.241 101.259 172.118 101.084 171.959C100.909 171.8 100.767 171.608 100.667 171.394C100.037 170.049 98.071 168.742 95.3476 168.742C93.6646 168.742 92.2084 169.257 91.2148 170.002Z" fill="#CEC7FF"/>
<path fill-rule="evenodd" clip-rule="evenodd" d="M98.8827 185.992C99.8745 185.248 100.321 184.357 100.321 183.526C100.321 182.694 99.8745 181.799 98.8809 181.056C97.8891 180.311 96.4329 179.796 94.7517 179.796C94.2743 179.796 93.8165 179.606 93.4789 179.269C93.1413 178.931 92.9517 178.473 92.9517 177.996C92.9517 177.519 93.1413 177.061 93.4789 176.723C93.8165 176.386 94.2743 176.196 94.7517 176.196C97.1385 176.196 99.3687 176.92 101.043 178.176C102.717 179.432 103.921 181.304 103.921 183.524C103.921 185.743 102.717 187.617 101.041 188.872C99.3669 190.128 97.1385 190.852 94.7517 190.852C91.0563 190.852 87.5607 189.082 86.1729 186.134C85.9693 185.702 85.9456 185.207 86.1069 184.758C86.2683 184.308 86.6015 183.942 87.0333 183.738C87.4651 183.534 87.9601 183.511 88.4094 183.672C88.8587 183.833 89.2255 184.167 89.4291 184.598C90.0627 185.945 92.0283 187.252 94.7517 187.252C96.4347 187.252 97.8891 186.737 98.8827 185.992ZM95.0001 161.542C95.4775 161.542 95.9353 161.732 96.2729 162.069C96.6105 162.407 96.8001 162.865 96.8001 163.342V165.142C96.8001 165.62 96.6105 166.077 96.2729 166.415C95.9353 166.753 95.4775 166.942 95.0001 166.942C94.5227 166.942 94.0649 166.753 93.7273 166.415C93.3897 166.077 93.2001 165.62 93.2001 165.142V163.342C93.2001 162.865 93.3897 162.407 93.7273 162.069C94.0649 161.732 94.5227 161.542 95.0001 161.542Z" fill="#CEC7FF"/>
<path fill-rule="evenodd" clip-rule="evenodd" d="M95.0002 188.542C95.4776 188.542 95.9354 188.732 96.273 189.069C96.6106 189.407 96.8002 189.865 96.8002 190.342V192.142C96.8002 192.62 96.6106 193.077 96.273 193.415C95.9354 193.753 95.4776 193.942 95.0002 193.942C94.5228 193.942 94.065 193.753 93.7274 193.415C93.3898 193.077 93.2002 192.62 93.2002 192.142V190.342C93.2002 189.865 93.3898 189.407 93.7274 189.069C94.065 188.732 94.5228 188.542 95.0002 188.542Z" fill="#CEC7FF"/>
</g>
<rect x="5" y="5" width="615" height="438" rx="17" stroke="#F9F9F9" stroke-opacity="0.8" stroke-width="10"/>
<defs>
<filter id="filter0_d_207_7381" x="78.3533" y="38.9022" width="468.293" height="381.293" filterUnits="userSpaceOnUse" color-interpolation-filters="sRGB">
<feFlood flood-opacity="0" result="BackgroundImageFix"/>
<feColorMatrix in="SourceAlpha" type="matrix" values="0 0 0 0 0 0 0 0 0 0 0 0 0 0 0 0 0 0 127 0" result="hardAlpha"/>
<feOffset dy="5.5489"/>
<feGaussianBlur stdDeviation="8.32336"/>
<feComposite in2="hardAlpha" operator="out"/>
<feColorMatrix type="matrix" values="0 0 0 0 0.774038 0 0 0 0 0.774038 0 0 0 0 0.774038 0 0 0 0.25 0"/>
<feBlend mode="normal" in2="BackgroundImageFix" result="effect1_dropShadow_207_7381"/>
<feBlend mode="normal" in="SourceGraphic" in2="effect1_dropShadow_207_7381" result="shape"/>
</filter>
<clipPath id="clip0_207_7381">
<rect x="10" y="10" width="605" height="428" rx="12" fill="white"/>
</clipPath>
</defs>
</svg>
